<svg width="32" height="32" viewBox="0 0 32 32" fill="none" xmlns="http://www.w3.org/2000/svg">
<rect width="32" height="32" rx="10" fill="#FFFF00"/>
<g clip-path="url(#clip0_2848_2085)">
<path d="M13 22.5004C8 24.0004 8 20.0004 6 19.5004M20 25.5004V21.6304C20.0375 21.1536 19.9731 20.6742 19.811 20.2242C19.6489 19.7742 19.3929 19.3638 19.06 19.0204C22.2 18.6704 25.5 17.4804 25.5 12.0204C25.4997 10.6243 24.9627 9.28162 24 8.27043C24.4559 7.04893 24.4236 5.69878 23.91 4.50043C23.91 4.50043 22.73 4.15043 20 5.98043C17.708 5.35925 15.292 5.35925 13 5.98043C10.27 4.15043 9.09 4.50043 9.09 4.50043C8.57638 5.69878 8.54414 7.04893 9 8.27043C8.03013 9.28913 7.49252 10.6439 7.5 12.0504C7.5 17.4704 10.8 18.6604 13.94 19.0504C13.611 19.3904 13.3573 19.7958 13.1953 20.2403C13.0334 20.6849 12.9668 21.1585 13 21.6304V25.5004" stroke="#292A2C" stroke-width="2" stroke-linecap="round" stroke-linejoin="round"/>
</g>
<defs>
<clipPath id="clip0_2848_2085">
<rect width="24" height="24" fill="white" transform="translate(4 3.5)"/>
</clipPath>
</defs>
</svg>
