<svg width="32" height="32" viewBox="0 0 32 32" fill="none" xmlns="http://www.w3.org/2000/svg">
<rect width="32" height="32" rx="10" fill="#FFFF00"/>
<path d="M21 5.5H11C8.23858 5.5 6 7.73858 6 10.5V20.5C6 23.2614 8.23858 25.5 11 25.5H21C23.7614 25.5 26 23.2614 26 20.5V10.5C26 7.73858 23.7614 5.5 21 5.5Z" stroke="#292A2C" stroke-width="2" stroke-linecap="round" stroke-linejoin="round"/>
<path d="M20 14.8703C20.1234 15.7025 19.9812 16.5525 19.5937 17.2993C19.2062 18.0461 18.5931 18.6517 17.8416 19.03C17.0901 19.4082 16.2384 19.5399 15.4077 19.4062C14.5771 19.2726 13.8097 18.8804 13.2148 18.2855C12.6199 17.6905 12.2277 16.9232 12.094 16.0925C11.9604 15.2619 12.092 14.4102 12.4703 13.6587C12.8485 12.9072 13.4541 12.294 14.2009 11.9065C14.9477 11.519 15.7977 11.3769 16.63 11.5003C17.4789 11.6262 18.2648 12.0218 18.8716 12.6286C19.4785 13.2355 19.8741 14.0214 20 14.8703Z" stroke="#292A2C" stroke-width="2" stroke-linecap="round" stroke-linejoin="round"/>
<path d="M21.5 10H21.51" stroke="#292A2C" stroke-width="2" stroke-linecap="round" stroke-linejoin="round"/>
</svg>
