<svg width="32" height="32" viewBox="0 0 32 32" fill="none" xmlns="http://www.w3.org/2000/svg">
<rect width="32" height="32" rx="10" fill="#FFFF00"/>
<path d="M27 6.50029C26.0424 7.17577 24.9821 7.6924 23.86 8.03029C23.2577 7.3378 22.4573 6.84698 21.567 6.62422C20.6767 6.40145 19.7395 6.45749 18.8821 6.78474C18.0247 7.112 17.2884 7.69469 16.773 8.45401C16.2575 9.21332 15.9877 10.1126 16 11.0303V12.0303C14.2426 12.0759 12.5013 11.6861 10.931 10.8957C9.36074 10.1054 8.01032 8.93893 7 7.50029C7 7.50029 3 16.5003 12 20.5003C9.94053 21.8983 7.48716 22.5992 5 22.5003C14 27.5003 25 22.5003 25 11.0003C24.9991 10.7217 24.9723 10.4439 24.92 10.1703C25.9406 9.16378 26.6608 7.893 27 6.50029V6.50029Z" stroke="#292A2C" stroke-width="2" stroke-linecap="round" stroke-linejoin="round"/>
</svg>
